<svg xmlns="http://www.w3.org/2000/svg" width="100%" height="16" viewBox="0 0 357 16">
    <g fill="#E4B363" fill-rule="evenodd">
        <path fill-rule="nonzero" d="M314.275 14.927c-.264-.02-.708-.05-.987-.066-.994-.058-1.608-.1-1.691-.115a6.297 6.297 0 0 0-.409-.04 4.377 4.377 0 0 1-.422-.049 2.457 2.457 0 0 0-.282-.038 4.57 4.57 0 0 1-.879-.148c-.094-.027-.183-.041-.199-.031-.015.01-.02.003-.009-.015.013-.022-.08-.036-.29-.045a2.217 2.217 0 0 1-.351-.032c-.023-.01-.05-.069-.058-.13-.018-.124-.048-.144-.317-.205a2.985 2.985 0 0 1-.35-.108 2.68 2.68 0 0 0-.243-.083c-.116-.029-.114-.098.007-.23a.75.75 0 0 1 .432-.25c.133-.034.314-.174.316-.244 0-.024-.121-.07-.294-.111a3.787 3.787 0 0 0-.338-.045 2.477 2.477 0 0 1-.411-.075 2.167 2.167 0 0 0-.501-.06c-.372-.01-.531-.06-.555-.172-.008-.037-.077-.097-.176-.152-.09-.049-.157-.1-.148-.115.008-.014-.002-.02-.022-.013-.092.033-.228-.039-.276-.146-.053-.116-.028-.224.05-.221.023 0 .042-.01.043-.023 0-.013.086-.025.191-.027.105-.002.195-.017.2-.034.006-.016.034-.029.063-.028.029 0 .06-.013.07-.03.01-.017.032-.03.047-.03.016 0 .022.012.014.026-.008.013.023.025.068.025.05 0 .083-.016.084-.04 0-.023.013-.032.029-.02.015.01.028.006.028-.01.001-.05-.072-.069-.202-.055a.735.735 0 0 1-.248-.027 4.43 4.43 0 0 0-.168-.05.523.523 0 0 1-.092-.035.174.174 0 0 0-.105-.01c-.072.019-.096-.025-.04-.074.024-.02.043-.025.043-.01 0 .015.01.014.02-.003.037-.053.151-.11.15-.075 0 .017.013.032.03.032.016 0 .023-.01.016-.024-.019-.036.208-.035.265 0 .03.02.059.018.08-.004.038-.04.152-.054.129-.015-.026.045.064.03.1-.017.027-.033.054-.036.105-.013.09.041.12.041.067 0-.031-.024-.017-.03.057-.026.054.003.194-.008.311-.025.117-.016.247-.03.288-.031.124-.004.09-.11-.074-.239-.095-.073-.14-.128-.128-.157.01-.029.028-.034.048-.015.017.016.056.018.088.005a.52.52 0 0 1 .162-.023c.082 0 .117-.018.156-.081.064-.103.073-.162.038-.24-.015-.034-.016-.053-.002-.043.014.01.043-.033.065-.097a.39.39 0 0 1 .072-.137c.017-.013-.019-.024-.081-.027-.083-.003-.102-.012-.07-.033.033-.022.02-.03-.049-.033a.35.35 0 0 1-.14-.033 6.456 6.456 0 0 0-.308-.153c-.286-.137-.452-.17-1.06-.217-.466-.035-.518-.043-.591-.089-.074-.047-.459-.123-.703-.139a.8.8 0 0 1-.323-.081 1.055 1.055 0 0 0-.266-.094c-.153-.028-.35-.112-.349-.15 0-.012.074-.048.164-.078.138-.046.255-.052.756-.04.4.01.628.002.701-.023.106-.036.207-.027.465.039.067.017.256.037.42.045.165.008.324.03.354.048.031.02.096.026.157.013a.473.473 0 0 1 .128-.013c.05.015.91.03 1.005.017.163-.022.366-.035.647-.042.145-.003.279-.021.296-.04.03-.032-.021-.05-.114-.039a.03.03 0 0 1-.035-.032c0-.02-.017-.03-.04-.02-.022.009-.055-.006-.074-.032-.027-.038-.038-.04-.058-.008-.02.033-.024.033-.023 0 0-.027-.02-.036-.053-.025-.036.011-.06-.001-.072-.039-.01-.03-.004-.06.013-.066.044-.015.116-.096.117-.13.001-.049-.11-.163-.139-.143-.015.01-.02-.003-.01-.029.013-.035.002-.042-.047-.03-.05.014-.06.007-.045-.033.028-.075-.031-.101-.08-.035-.026.036-.036.04-.026.01.017-.052-.113-.14-.161-.11-.017.012-.02.004-.008-.016.011-.02.007-.036-.01-.037-.015 0-.03.02-.03.047-.002.066-.057.057-.058-.01 0-.046-.005-.045-.025.007-.013.035-.02.07-.016.08.004.01-.016.019-.046.02-.066.004-.07-.02-.01-.068.036-.027.01-.033-.114-.029-.094.003-.152-.007-.142-.024.01-.016-.008-.022-.04-.014-.033.009-.056 0-.056-.022 0-.02-.014-.027-.033-.015-.023.015-.026.004-.01-.038a.68.68 0 0 0 .03-.102c.013-.073.085-.093.173-.046.046.024.068.044.048.045-.069.003-.035.065.037.067.053.001.07-.011.059-.045-.008-.025-.002-.055.014-.065.018-.012.016-.037-.007-.07-.03-.044-.028-.048.01-.032a.093.093 0 0 0 .084-.01c.032-.024.03-.027-.01-.014-.042.014-.046.003-.029-.069.011-.046.031-.092.044-.1.042-.03-.002-.154-.047-.136-.03.011-.04-.001-.032-.043.008-.043-.005-.057-.046-.054-.031.003-.04-.002-.02-.01.019-.01.029-.03.02-.044-.007-.015.013-.046.044-.07.032-.023.05-.052.04-.064-.01-.012.006-.02.036-.02.044 0 .047-.005.013-.03-.027-.02-.048-.018-.062.006-.012.02-.029.027-.039.016-.017-.02.038-.153.076-.18.031-.024.07-.167.04-.147-.014.009-.04-.01-.057-.043-.029-.053-.024-.06.044-.052.049.005.075-.007.07-.032-.003-.021.004-.037.016-.035.058.012.092-.006.093-.048 0-.026.014-.047.03-.046.017 0 .024-.013.015-.029-.008-.016.001-.036.02-.044.022-.009.017-.016-.013-.019-.027-.002-.049-.015-.049-.028 0-.013-.043-.023-.098-.022-.054.002-.091-.01-.082-.025.009-.015-.01-.029-.044-.03-.033 0-.051-.015-.041-.032.01-.017.003-.032-.015-.032-.019 0-.025-.023-.014-.052.016-.043.012-.045-.025-.013-.036.032-.044.03-.043-.009 0-.026.027-.054.058-.062.034-.009.058-.041.058-.081.002-.056-.01-.064-.076-.05-.064.013-.07.01-.029-.017.046-.031.045-.039-.01-.113-.032-.043-.077-.08-.1-.08-.085-.003-.008-.034.106-.043.069-.006.11.002.1.02-.009.015-.004.028.012.029.015 0 .035-.01.043-.025.008-.014.057-.022.108-.017.051.005.108-.004.126-.02.021-.016.04-.014.051.007.012.022.035.024.071.003a.25.25 0 0 1 .12-.025c.1.007.446-.018.47-.033.019-.013.328-.048.423-.048.05 0 .047-.149-.003-.192-.023-.02-.043-.076-.046-.124-.002-.054-.017-.082-.04-.073-.02.008-.028-.004-.018-.029.01-.027-.014-.05-.069-.065-.093-.025-.157-.096-.13-.142.01-.017-.008-.023-.04-.015-.04.011-.056 0-.055-.038 0-.03-.024-.062-.055-.072-.063-.02-.072-.06-.022-.092.02-.013.025-.008.012.015-.012.02-.011.035.002.033.06-.01.093.01.092.055-.001.065.067.042.08-.027.006-.03 0-.051-.012-.05-.078.014-.122-.012-.12-.07 0-.036.013-.056.028-.045.016.011.029-.009.03-.044 0-.036.019-.065.04-.064.022 0 .048-.02.058-.047.01-.027.006-.041-.009-.032-.014.01-.03 0-.037-.023-.006-.022-.009-.015-.005.016.003.03-.006.055-.02.054-.014 0-.025-.017-.024-.038 0-.02-.018-.01-.04.022-.031.044-.034.066-.01.083.018.014.007.02-.026.017-.052-.006-.087-.09-.037-.088.011 0 .029-.041.04-.093.014-.075.033-.094.09-.092.039.001.071-.012.072-.03 0-.017.026-.03.057-.03.06.002.074.049.026.08-.053.034-.004.071.084.065.116-.007.144-.042.04-.049-.08-.005-.08-.006-.01-.026l.07-.02-.062-.04c-.072-.047-.082-.102-.018-.1.025 0 .036.015.026.032-.01.017-.004.032.012.032s.03-.027.031-.062c.001-.038.02-.062.05-.062.041.002.04-.004-.007-.045-.042-.037-.056-.038-.068-.006-.01.024-.036.031-.068.018-.049-.022-.05-.026-.003-.075.027-.028.067-.051.09-.05.036 0 .053-.037.045-.102-.001-.013.017-.023.041-.022.025 0 .037-.012.029-.029-.02-.038.034-.073.072-.046.02.015.018.035-.005.065-.025.03-.025.043-.003.044.033.001.043-.037.036-.137-.006-.078.049-.111.178-.108.062.001.103-.012.1-.033-.004-.022.055-.033.163-.03a.49.49 0 0 0 .205-.027c.02-.017.073-.02.118-.01.058.015.093.006.12-.032.02-.029.026-.042.012-.03-.014.014-.06-.037-.102-.112-.042-.075-.077-.124-.078-.108 0 .016-.025.002-.056-.03-.03-.032-.054-.074-.053-.093 0-.019.014-.01.03.021.014.031.048.057.073.058.035 0 .039-.008.016-.035a.09.09 0 0 1-.014-.082c.014-.037.021-.038.04-.003.017.032.023.026.024-.02 0-.079-.063-.182-.095-.152-.013.012-.013.005-.002-.017.012-.021.034-.03.048-.02.014.01.026.005.026-.013a.07.07 0 0 0-.026-.05c-.035-.027 0-.118.065-.167.03-.022.045-.055.035-.073-.01-.022.006-.025.05-.009.054.02.06.017.032-.018-.042-.05-.043-.146-.002-.16.028-.01.035-.064.027-.19-.003-.033-.028-.056-.063-.058-.034 0-.046-.011-.028-.024.045-.032.073-.126.045-.147-.013-.01-.03 0-.038.022-.007.021-.02.031-.03.022-.008-.01-.004-.037.01-.062.022-.037.035-.035.083.016.056.06.057.06.06 0 .003-.032.01-.041.018-.02.007.022.026.04.042.041.016 0 .022-.02.014-.046-.009-.026-.006-.045.005-.042a.293.293 0 0 0 .1-.03c.045-.019.093-.026.107-.016.014.01.026.003.026-.016 0-.02.012-.027.027-.016.014.01.033.005.043-.011.01-.016.04-.029.066-.028.078.003.126-.013.257-.084a.552.552 0 0 1 .16-.066.056.056 0 0 0 .052-.037c.013-.04.277-.053.276-.013 0 .013.035.014.078.002a.917.917 0 0 1 .394.022c.067.018.088.009.12-.054.02-.041.031-.09.022-.106-.022-.044-.213-.079-.524-.097-.147-.008-.295-.033-.33-.055-.033-.022-.07-.038-.083-.036-.012.002-.069 0-.125-.003-.077-.005-.106-.023-.116-.07-.01-.052.001-.063.062-.062.072 0 .073-.001.022-.046-.048-.043-.026-.046.205-.033.142.008.258.023.258.034 0 .01.035.016.078.011.191-.02.484-.038.592-.037.064 0 .112-.011.104-.025-.007-.014.01-.027.038-.029.112-.007.138-.012.187-.035.029-.013.077-.076.108-.14.058-.119.15-.186.168-.122.006.024.022.023.052-.003.027-.023.05-.026.06-.006.02.034.475.047.505.015.01-.01.033-.004.05.013.035.034.206.034.258 0 .017-.012.074-.006.127.012.054.018.331.047.618.064.286.017.685.042.886.056 1.087.077 1.418.095 2.094.11.531.013.74.028.74.054 0 .025.01.026.037.002.038-.034.208-.038.698-.017.147.007.28.01.296.01l.34-.023a1.95 1.95 0 0 1 .357-.004c.026.01.053.006.062-.008.008-.015.121-.027.25-.027s.308-.013.397-.027c.089-.015.324-.03.523-.031.198-.003.45-.007.559-.01a.692.692 0 0 1 .25.025c.028.017.045.019.036.003-.008-.016.104-.024.259-.018.15.006.318-.005.372-.024.076-.027.105-.026.12.002.014.025.02.026.021.002 0-.021.08-.035.206-.036.28-.002 1.132.02 1.305.032.078.006.256.005.396-.002.337-.016.86-.01.86.01 0 .024.136.016.362-.02a.872.872 0 0 1 .283-.01c.097.032.287.046.287.02 0-.01.036-.017.078-.016.79.023 2.28.007 2.33-.026.012-.008.022-.002.021.013 0 .016.038.023.084.017a.28.28 0 0 1 .134.013c.062.031.175.044.161.018-.005-.01.209-.01.476.001.266.012.485.023.485.026 0 .003.079.01.176.017.097.006.176.002.176-.01 0-.01.045-.007.1.008.053.015.103.018.11.006.007-.012.128-.018.269-.013.152.006.256-.003.256-.022.001-.019.01-.017.022.003.024.043.238.047.267.005.014-.02.021-.02.021 0 0 .018.047.032.106.031.058 0 .135.013.17.029a.137.137 0 0 0 .118 0c.05-.029.169-.038.778-.058a17.9 17.9 0 0 0 .566-.03c.155-.01.505-.015.776-.01.272.006.545 0 .608-.01.062-.012.405-.015.762-.008.838.016 1.47.009 1.72-.02.11-.014.347-.041.527-.062.179-.021.478-.05.665-.065.186-.014.396-.032.466-.038.23-.022.463-.01.652.034.119.028.48.052 1.01.067.452.012.832.028.842.036.011.007.49.036 1.063.064.574.027 1.145.06 1.27.071.695.066 1.224.093 2.382.122.163.004.341.013.395.02.117.015.66.058 1.17.092 1.102.074 1.513.098 2.256.131.45.02.862.045.916.056.054.011.2.028.324.038.23.018.491.06.525.084.01.008.105.023.211.035.106.012.268.038.361.057.093.02.207.042.253.05.046.008.187.048.313.088.126.04.256.074.288.075.032 0 .058.013.058.028 0 .014.015.026.035.027.19.007.646.069.717.097.05.02.116.078.148.13.062.104.232.21.388.243.195.042.532.086.603.08.04-.004.072.008.072.027 0 .018.008.024.018.013.011-.011.046.008.077.043.032.034.143.115.246.179.15.093.228.12.388.135.212.019.249.047.225.168-.015.078-.129.138-.252.135-.036-.001-.073.012-.083.029-.01.017-.061.03-.114.028-.149-.004-.382.053-.382.094 0 .067.213.155.423.175.114.01.378.032.587.048.423.033.467.043.488.109.031.097-.364.412-.686.548-.104.044-.156.088-.193.163-.062.13-.035.192.133.309.065.045.117.103.117.13 0 .026.017.07.04.096.064.076.047.152-.049.21-.048.03-.143.111-.211.18-.104.103-.147.125-.263.13-.102.007-.151.027-.187.077-.027.037-.043.08-.036.093.007.014 0 .024-.016.024s-.044.03-.064.069c-.019.038-.024.06-.012.048.03-.03.105.064.083.103-.01.018.003.025.033.016.028-.008 0 .013-.063.045a.525.525 0 0 1-.204.058.509.509 0 0 0-.163.027c-.054.02-.073.018-.073-.01 0-.021-.014-.015-.03.014-.055.1-.004.212.135.296.073.044.15.113.174.155a.325.325 0 0 0 .152.116c.226.083.258.247.06.304-.125.036-.186.136-.15.247.017.057.016.083-.004.082-.052-.001-.104.076-.102.153 0 .077-.001.078-.24.133a.445.445 0 0 0-.158.096c-.048.044-.122.1-.165.123-.043.023-.08.063-.08.088-.001.058-.104.116-.226.127-.133.012-.188.049-.196.132-.006.069.102.22.16.222.034 0 .19.186.19.225-.002.054-.104.088-.302.1a2.93 2.93 0 0 0-.337.042c-.13.027-.59.1-.695.112-.044.004-.066.116-.023.117.013 0 .01.027-.007.059-.016.032-.02.068-.01.08.035.042.013.441-.027.485-.02.023-.096.045-.168.048-.115.006-.192.053-.167.103.005.01-.01.035-.031.057-.023.021-.04.029-.04.016 0-.013-.015-.007-.034.013-.024.026-.044.026-.07 0-.027-.026-.06-.025-.122.001-.144.062-.1.158.094.203.216.05.264.072.23.108-.009.01-.21.017-.446.016-.502-.003-.56.021-.607.251a.953.953 0 0 1-.096.251.852.852 0 0 0-.118.325c-.001.017-.045.035-.097.039-.065.005-.1.026-.11.067-.01.033-.027.052-.04.042-.014-.01-.026-.003-.026.014 0 .018-.06.068-.13.112-.203.124-.233.23-.085.297.068.032.071.055.022.187-.037.097.055.162.357.254.293.09.374.15.289.21-.054.037-.436-.01-1.037-.13-.273-.054-.388-.032-.451.084-.063.115-.128.148-.316.16-.155.009-.302.09-.303.169-.002.048.123.097.267.105.108.006.235.093.172.117a.28.28 0 0 0-.08.06c-.023.024-.042.036-.042.026.001-.038-.173.077-.208.137-.044.076-.192.177-.25.172-.146-.014-.34.002-.34.028-.001.049.144.192.175.173.015-.01.019-.003.008.015-.01.019-.007.043.009.055a.04.04 0 0 1 .011.05c-.01.017-.002.053.016.079.054.075 0 .104-.216.114a2.51 2.51 0 0 0-.326.037c-.07.015-.306.053-.524.084a4.099 4.099 0 0 0-.555.113c-.089.03-.235.053-.333.05a1.54 1.54 0 0 0-.38.053c-.195.055-.261.056-1.194.014a54.26 54.26 0 0 1-1.226-.066c-.344-.03-.766-.075-.823-.09-.028-.006-.358-.03-.734-.052-.538-.033-.765-.033-1.066-.003-.21.021-.596.04-.858.044-.262.003-.522.01-.579.017-.196.02-.868.051-1.262.057-.217.004-.611.014-.876.023-.264.008-.798.015-1.186.015-.388 0-.744.003-.79.007-.047.004-.366.009-.71.01-.343.002-.66.007-.706.012-.086.009-.3.02-1.057.05-.594.025-1.04.058-1.408.104-.16.02-.34.035-.399.033a.673.673 0 0 0-.19.024 1.39 1.39 0 0 1-.26.039 4.36 4.36 0 0 0-.454.066c-.151.03-.351.06-.445.066a10.51 10.51 0 0 0-.382.037c-.116.013-.288.03-.382.035a9.767 9.767 0 0 0-.476.051c-.17.022-.411.045-.538.052a7.63 7.63 0 0 0-.393.031c-.089.01-.318.018-.508.016a6.085 6.085 0 0 0-.559.019c-.23.024-.72.04-1.102.035a2.524 2.524 0 0 0-.367.02c-.07.013-.554.018-1.074.013-.52-.006-.973-.005-1.006.002a9.613 9.613 0 0 1-.608.018c-.3.003-.61.008-.687.011-.078.004-.364.009-.636.011-.272.003-.602.012-.735.02-.132.007-.252.009-.268.004-.015-.005-.212 0-.438.013-.225.012-.537.027-.692.032a8.438 8.438 0 0 0-.382.02c-.054.005-.27.013-.48.019-.21.005-.388.013-.396.018a4.096 4.096 0 0 1-.368.02 5.773 5.773 0 0 0-.41.021c-.057.011-2.056-.005-2.921-.023a21.027 21.027 0 0 1-.945-.046zm-5.587-3.976c.014 0 .003-.05-.024-.11-.041-.091-.076-.106-.238-.101-.105.003-.195.03-.2.06-.015.079.172.176.315.164l.147-.013zm.547-1.65c0-.015-.021-.027-.049-.028-.027 0-.05.026-.05.06-.001.033.02.045.048.026.028-.018.051-.045.051-.059zm-1.416-.994c0-.012-.026-.039-.059-.059-.034-.02-.05-.012-.037.021.022.056.095.085.096.038zm.432-1.097c-.051-.042-.057-.038-.03.023.018.042.047.066.064.054.017-.013.002-.047-.034-.077zm.47-.518c-.052-.043-.058-.038-.031.023.019.042.048.066.065.053.016-.013.001-.047-.034-.076zm-.437.035c-.017-.03-.042-.055-.055-.055-.013 0-.024.024-.025.053 0 .03.024.054.055.055.031 0 .043-.023.025-.053zm.926-1.565c-.029-.018-.063-.017-.077.002-.014.018.01.033.052.032.047-.001.057-.015.025-.034zm.034.069c-.041-.032-.106-.128-.105-.156 0-.009.019-.001.041.016.053.041.085.014.042-.036-.039-.043-.11-.011-.111.05 0 .02-.01.03-.023.023-.011-.007-.023.009-.026.034-.004.032.012.048.047.049.03 0 .053.012.053.025 0 .013.026.025.06.025.053 0 .056-.004.022-.03zm-.109-.038c0-.014.024-.04.051-.059.028-.019.05-.007.05.027-.001.033-.024.06-.052.059-.027 0-.049-.013-.049-.027zm.565-.577c.004-.038-.003-.052-.015-.031a.05.05 0 0 1-.062.02c-.022-.01-.028.005-.015.032.036.071.084.06.092-.02zm-.02.038c.042-.072-.004-.09-.058-.02-.03.039-.034.063-.01.063.023.001.053-.018.067-.043zm.95-1.532c0-.012-.022-.038-.05-.057-.027-.02-.05-.01-.05.02s.022.056.05.058c.027 0 .05-.008.05-.02zm-4.78 8.275c0-.021.023-.05.05-.063.029-.013.05.005.05.04-.002.035-.025.064-.052.063-.028 0-.05-.018-.049-.04zm.935-2.596c.019-.032.053-.046.076-.032.024.016.01.041-.034.06-.054.022-.067.014-.042-.028zm.424 0c-.031-.023-.034-.034-.007-.036.067-.006.084-.01.121-.034a.041.041 0 0 1 .058.015c.013.023.008.029-.013.014-.021-.014-.036-.003-.036.026-.002.056-.056.062-.123.014zm.053-.012c.026-.042.051-.044.073-.006.021.039.008.06-.04.064-.055.005-.063-.01-.033-.058zm.465-.528c.002-.035.025-.052.052-.038.027.015.05.044.049.065-.001.021-.024.038-.052.038-.028 0-.05-.03-.049-.065zm.023-.504c.07-.162.077-.166.068-.043-.005.06-.033.12-.063.133-.044.02-.045.001-.005-.09zm.389-.992c-.035-.029-.015-.053.062-.075.14-.04.166-.014.065.061-.041.031-.099.038-.127.014zm.524-2.12c.014-.018.049-.02.078-.001.032.019.022.032-.025.033-.043.001-.066-.013-.053-.032zm0 0c.014-.018.049-.02.078-.001.032.019.022.032-.025.033-.043.001-.066-.013-.053-.032zm.503-.512c-.001-.046.012-.071.03-.056.017.014.017.052.001.083-.018.034-.03.024-.031-.027zm1.398-1.554c-.034-.033-.038-.055-.01-.054.024 0 .055.026.068.056.028.07.014.069-.058-.002z"/>
        <path d="M17 1h304v14H17z"/>
        <path fill-rule="nonzero" d="M10.847 15.916a64.358 64.358 0 0 0-1.041-.075c-1.05-.066-1.698-.113-1.786-.131a6.157 6.157 0 0 0-.431-.047 4.283 4.283 0 0 1-.446-.055 2.408 2.408 0 0 0-.297-.043 4.49 4.49 0 0 1-.929-.17c-.099-.03-.193-.047-.21-.035-.016.011-.02.004-.009-.017.014-.025-.085-.042-.307-.052a2.168 2.168 0 0 1-.37-.036c-.025-.012-.052-.079-.061-.148-.02-.143-.05-.165-.335-.235a2.976 2.976 0 0 1-.37-.123 2.685 2.685 0 0 0-.256-.096c-.123-.032-.12-.112.007-.263a.782.782 0 0 1 .457-.285c.14-.039.331-.2.333-.28 0-.026-.128-.078-.31-.126a3.711 3.711 0 0 0-.357-.05 2.437 2.437 0 0 1-.435-.087 2.123 2.123 0 0 0-.528-.069c-.393-.012-.56-.068-.585-.195-.009-.044-.082-.112-.187-.174-.095-.057-.165-.116-.156-.132.009-.016-.002-.023-.023-.014-.097.037-.241-.045-.292-.167-.055-.134-.03-.256.054-.254.024.001.044-.01.044-.025 0-.015.092-.03.202-.031.11-.003.206-.02.212-.039.006-.019.036-.033.066-.032.03 0 .064-.015.075-.034.01-.02.032-.035.048-.035.017 0 .023.014.015.03-.008.015.024.028.072.029.052 0 .088-.018.089-.046 0-.026.014-.037.03-.024.016.013.03.008.03-.011.001-.056-.076-.078-.214-.063a.72.72 0 0 1-.261-.03 4.409 4.409 0 0 0-.178-.057.527.527 0 0 1-.096-.04.17.17 0 0 0-.112-.012c-.076.021-.1-.028-.042-.084.025-.024.045-.03.045-.012 0 .017.01.016.023-.004.038-.06.158-.125.158-.085 0 .02.013.036.03.037.018 0 .026-.012.018-.028-.02-.04.22-.04.28.001.031.022.061.02.084-.006.04-.046.16-.06.136-.017-.028.051.068.034.107-.019.027-.038.055-.041.11-.014.094.046.126.046.07 0-.033-.028-.018-.036.06-.031.058.003.205-.01.329-.028.123-.018.26-.035.304-.036.13-.004.095-.125-.079-.272-.1-.085-.146-.147-.135-.18.011-.033.03-.04.05-.018.019.019.06.021.094.006a.511.511 0 0 1 .171-.026c.086 0 .123-.02.165-.093.068-.117.077-.184.04-.274-.016-.039-.017-.06-.003-.05.015.013.046-.037.07-.11a.458.458 0 0 1 .075-.157c.019-.014-.02-.027-.085-.03-.088-.003-.107-.013-.074-.038.035-.025.022-.034-.052-.037a.346.346 0 0 1-.148-.038 6.626 6.626 0 0 0-.325-.175c-.301-.156-.477-.195-1.119-.248-.491-.04-.547-.05-.624-.102-.078-.053-.484-.14-.741-.158a.795.795 0 0 1-.341-.094 1.06 1.06 0 0 0-.281-.107c-.162-.032-.37-.127-.369-.17 0-.015.078-.056.173-.09.146-.053.27-.06.799-.046.422.011.662.003.74-.026.111-.041.218-.032.49.044.07.02.27.043.444.052.174.009.342.033.373.055.033.023.102.029.166.015.06-.013.12-.02.135-.016.053.017.96.034 1.061.02.172-.025.387-.04.683-.047.154-.005.294-.025.313-.046.032-.037-.023-.058-.12-.045-.021.002-.038-.014-.037-.037 0-.023-.019-.033-.042-.023-.024.01-.06-.006-.079-.036-.028-.044-.04-.046-.061-.009-.02.037-.025.037-.025-.001 0-.03-.02-.04-.056-.028-.038.013-.063-.002-.075-.044-.01-.035-.004-.07.013-.076.046-.017.123-.11.124-.15.001-.054-.115-.184-.146-.163-.016.012-.021-.003-.011-.032.013-.04.002-.048-.05-.033-.053.015-.063.007-.047-.04.03-.085-.033-.115-.084-.04-.029.042-.039.046-.029.012.018-.06-.119-.16-.17-.124-.017.012-.02.004-.008-.02.012-.022.008-.04-.01-.041-.017-.001-.032.023-.032.053-.002.076-.06.065-.062-.011 0-.054-.004-.053-.026.008-.014.039-.022.08-.017.09.005.012-.017.022-.049.024-.07.004-.073-.024-.01-.078.038-.03.012-.038-.12-.033-.1.003-.16-.008-.15-.027.01-.019-.009-.026-.042-.017-.035.01-.06 0-.06-.025.001-.023-.014-.03-.034-.017-.025.017-.028.005-.01-.043a.826.826 0 0 0 .031-.117c.014-.084.09-.106.182-.053.05.028.072.051.052.052-.074.004-.038.074.038.076.056.002.074-.012.062-.05-.008-.03-.002-.064.015-.075.02-.014.017-.043-.007-.08-.032-.05-.03-.056.01-.036a.092.092 0 0 0 .09-.012c.033-.028.03-.031-.011-.016-.045.016-.05.003-.031-.079.012-.053.033-.105.046-.116.044-.033-.002-.175-.05-.154-.03.013-.04-.002-.033-.049.008-.05-.005-.066-.049-.061-.032.003-.042-.003-.022-.013.021-.01.032-.033.023-.05-.008-.017.013-.053.046-.08.034-.026.053-.06.042-.072-.01-.014.007-.024.038-.024.047.001.05-.005.014-.033-.028-.023-.05-.02-.066.006-.012.023-.03.031-.04.018-.019-.023.04-.174.08-.206.033-.027.074-.19.042-.168-.015.01-.043-.011-.061-.049-.03-.06-.024-.067.047-.059.051.006.079-.007.075-.036-.004-.025.003-.043.015-.04.062.013.097-.007.099-.055 0-.03.015-.054.032-.053.018 0 .024-.014.016-.033-.01-.018 0-.04.021-.05.023-.01.017-.02-.014-.022-.029-.002-.052-.017-.051-.032 0-.015-.047-.026-.104-.025-.057.002-.097-.011-.087-.029.01-.017-.011-.032-.046-.033-.035-.001-.055-.018-.044-.038.01-.02.004-.036-.016-.036s-.026-.026-.014-.06c.016-.049.012-.05-.027-.014-.038.036-.046.034-.045-.01 0-.03.028-.062.061-.071.036-.01.06-.047.062-.093.001-.064-.012-.073-.08-.058-.068.015-.074.012-.031-.02.048-.034.047-.043-.01-.128-.035-.05-.082-.091-.107-.092-.09-.002-.008-.038.112-.049.073-.006.117.003.107.022-.01.019-.005.034.011.034.017 0 .037-.012.046-.028.009-.016.06-.025.114-.02.054.006.114-.004.133-.021.022-.02.043-.017.054.006.013.026.037.028.075.005a.248.248 0 0 1 .126-.03c.105.009.471-.02.497-.038a2.88 2.88 0 0 1 .446-.054c.052 0 .05-.17-.003-.22-.024-.022-.046-.086-.048-.14-.003-.063-.019-.095-.042-.085-.021.01-.03-.004-.02-.032.01-.032-.015-.058-.073-.075-.097-.029-.166-.11-.137-.162.01-.02-.008-.026-.042-.017-.043.012-.06 0-.059-.044a.091.091 0 0 0-.057-.083c-.067-.023-.076-.067-.023-.104.021-.015.026-.009.012.017-.013.023-.012.04.002.037.064-.01.099.012.098.064-.002.074.07.047.085-.031.006-.034 0-.06-.014-.057-.083.015-.129-.014-.127-.08 0-.042.014-.065.03-.052.017.013.03-.01.031-.05.001-.041.02-.074.043-.073.023 0 .05-.024.06-.054.011-.03.007-.047-.008-.036-.015.01-.033-.001-.04-.027-.006-.025-.008-.017-.005.018.004.035-.005.063-.02.062-.015 0-.027-.02-.026-.044 0-.023-.02-.012-.043.026-.032.05-.035.075-.01.095.02.015.008.023-.028.019-.054-.007-.09-.102-.038-.1.011 0 .03-.048.041-.107.016-.085.036-.107.095-.105.042.001.076-.014.076-.034 0-.02.028-.035.06-.034.064.002.08.055.028.091-.055.04-.004.081.09.075.121-.01.151-.049.042-.057-.085-.006-.086-.006-.012-.03l.075-.022-.066-.046c-.076-.054-.086-.117-.018-.114.025 0 .038.017.027.036-.01.02-.005.036.012.037.018 0 .033-.032.034-.071 0-.044.02-.072.051-.07.044 0 .043-.006-.006-.052-.045-.042-.06-.044-.073-.007-.01.028-.037.036-.07.02-.053-.024-.053-.03-.004-.085.028-.033.07-.059.094-.058.039 0 .057-.042.049-.116-.002-.015.018-.026.043-.025.026 0 .04-.014.03-.033-.021-.044.036-.084.076-.053.02.017.02.04-.005.074-.026.036-.027.05-.003.05.035.002.045-.042.038-.156-.006-.09.051-.127.188-.124.066.002.109-.013.105-.037-.004-.025.058-.038.172-.035.098.002.196-.012.217-.03.02-.02.077-.024.124-.011.062.017.098.006.127-.037.022-.033.028-.048.013-.034-.015.015-.064-.043-.108-.129-.045-.085-.081-.14-.082-.123 0 .018-.027.002-.059-.034-.032-.037-.057-.085-.056-.107 0-.021.014-.01.03.025s.052.064.079.065c.036.001.04-.009.016-.04a.11.11 0 0 1-.015-.093c.015-.043.023-.043.042-.003.018.036.025.03.026-.023 0-.09-.067-.208-.1-.174-.014.014-.014.006-.002-.019.013-.025.035-.035.05-.023.015.011.028.005.028-.015a.082.082 0 0 0-.027-.058c-.038-.03 0-.134.068-.19.03-.025.047-.063.037-.084-.012-.024.007-.028.052-.01.058.023.064.02.034-.02-.044-.059-.045-.167-.002-.183.03-.011.038-.073.028-.218a.067.067 0 0 0-.066-.065c-.035-.002-.048-.014-.03-.028.048-.037.078-.144.048-.168-.014-.011-.032 0-.04.025-.008.024-.022.035-.031.025-.01-.011-.005-.043.01-.07.024-.043.037-.04.088.018.059.067.06.067.064 0 .002-.038.01-.048.018-.023.007.025.027.046.044.047.017 0 .023-.024.015-.053-.009-.03-.007-.052.005-.048a.291.291 0 0 0 .106-.034c.047-.021.098-.03.113-.018.014.012.027.003.027-.019s.013-.03.029-.019c.015.012.035.007.045-.012.01-.018.042-.033.07-.032.082.003.133-.015.27-.096a.558.558 0 0 1 .171-.075c.023 0 .047-.018.054-.042.014-.046.292-.06.292-.015 0 .015.036.015.081.002.09-.027.28-.016.416.025.071.021.093.01.127-.061.023-.048.033-.103.024-.122-.024-.05-.225-.09-.553-.11-.156-.01-.312-.039-.348-.063C7.966.708 7.926.689 7.913.69c-.013.003-.072 0-.131-.003C7.7.682 7.67.662 7.659.608c-.011-.06.001-.072.065-.071.076 0 .077-.001.024-.053-.05-.048-.028-.052.216-.037.15.01.273.027.273.039s.036.018.082.013c.202-.023.51-.044.624-.043.069 0 .119-.013.11-.029-.007-.016.011-.03.041-.032.117-.008.146-.014.198-.04.03-.016.08-.088.114-.161.06-.135.158-.212.176-.14.007.029.024.028.055-.002.029-.027.052-.03.065-.007.02.038.5.053.532.017.01-.012.034-.005.053.015.037.038.217.038.272 0 .018-.014.078-.007.135.013.056.021.349.054.651.073.302.02.723.048.936.065 1.147.088 1.497.108 2.21.126.561.014.782.032.782.06 0 .03.01.03.039.003.04-.038.22-.043.736-.019.156.007.297.012.313.011l.358-.026c.18-.014.35-.016.378-.004.027.01.056.006.065-.01.01-.017.128-.03.264-.03s.325-.015.419-.032c.094-.017.343-.033.552-.036.21-.002.475-.007.59-.011.115-.004.234.009.264.029.03.02.048.022.039.004-.009-.019.11-.028.273-.021.158.006.335-.006.393-.028.08-.03.11-.03.126.003.015.028.022.03.023.002 0-.024.084-.04.217-.04.296-.003 1.195.021 1.378.036.082.006.27.005.417-.002.357-.02.91-.013.91.01-.001.028.142.02.38-.023a.852.852 0 0 1 .3-.01c.102.036.302.051.303.023 0-.012.037-.02.082-.019.834.027 2.406.007 2.46-.03.012-.009.022-.002.022.016 0 .017.04.026.089.018.049-.007.112 0 .141.016.066.035.185.05.17.02-.005-.012.22-.011.502.002.282.012.512.026.512.029 0 .003.084.012.186.019.102.007.186.002.187-.01 0-.013.047-.01.104.008.057.017.11.02.117.007.008-.014.135-.02.283-.015.161.006.27-.004.271-.025.001-.021.01-.02.023.004.026.049.25.053.282.005.015-.023.022-.023.022 0 0 .02.05.036.112.036.061 0 .142.014.18.032.04.02.09.02.124 0 .053-.032.178-.042.822-.066.164-.006.432-.02.596-.034.165-.012.534-.018.82-.011.287.006.576 0 .642-.012a8.18 8.18 0 0 1 .805-.01c.885.02 1.55.01 1.816-.023l.555-.07c.19-.024.505-.057.702-.074.197-.016.419-.036.493-.044a2.04 2.04 0 0 1 .688.04c.125.032.507.059 1.065.076.479.014.88.032.89.041.012.009.517.041 1.123.073.606.031 1.208.068 1.34.082.734.074 1.292.105 2.515.139.172.004.36.015.417.023.124.017.696.066 1.235.105 1.163.085 1.597.112 2.381.15.475.023.91.052.967.064a3.7 3.7 0 0 0 .342.043c.243.021.52.069.555.096.01.009.11.027.223.04.111.014.283.043.38.065.098.022.219.048.268.057.049.01.197.055.33.101.133.046.27.084.304.085.034.001.062.016.061.032 0 .017.017.03.037.032.201.008.682.078.757.11.053.022.123.09.157.15.065.117.244.238.409.276.206.048.562.1.637.092.042-.005.076.01.075.03 0 .022.009.029.02.016.012-.013.048.009.081.048.034.04.15.132.26.205.159.107.24.137.41.154.223.022.262.054.237.193-.016.089-.136.158-.266.154-.038-.001-.077.014-.088.033-.01.02-.065.034-.12.032-.157-.005-.404.061-.404.108 0 .076.225.177.447.2l.62.055c.446.037.493.048.515.124.033.11-.384.471-.724.626-.11.05-.165.101-.204.187-.065.147-.037.22.14.352.069.052.124.119.124.15-.001.03.018.079.042.11.068.086.05.172-.052.24-.05.034-.15.126-.223.204-.11.119-.154.143-.277.15-.108.007-.16.03-.198.087-.028.043-.045.09-.038.106.008.016 0 .028-.016.028-.017 0-.047.035-.067.079-.02.044-.027.069-.014.055.032-.034.112.073.088.117-.011.02.003.029.035.02.03-.01 0 .013-.067.05a.522.522 0 0 1-.215.066.5.5 0 0 0-.172.031c-.057.024-.078.021-.078-.011 0-.024-.013-.017-.03.016-.06.115-.005.242.142.338.076.05.159.13.184.177a.349.349 0 0 0 .16.133c.239.094.272.282.062.348-.13.04-.195.155-.158.281.02.066.018.095-.003.095-.055-.002-.11.086-.109.175.002.087 0 .088-.253.15a.465.465 0 0 0-.166.11c-.05.051-.129.114-.175.141-.045.027-.083.072-.084.1-.001.068-.11.133-.238.146-.141.013-.2.056-.207.15-.007.08.108.252.168.254.037.001.202.213.2.258 0 .062-.109.1-.317.115a2.868 2.868 0 0 0-.356.047c-.137.03-.624.115-.734.128-.047.005-.07.133-.025.134.014 0 .01.03-.006.067-.018.036-.022.078-.011.092.037.047.014.504-.028.554-.023.027-.102.052-.178.055-.122.007-.203.06-.176.117.005.011-.01.04-.034.065-.023.025-.042.034-.042.019 0-.015-.015-.008-.035.015-.026.03-.046.03-.074 0-.029-.03-.063-.03-.13.001-.151.07-.104.18.1.232.229.057.28.082.243.124-.01.01-.221.019-.47.018-.531-.003-.593.024-.641.287a1.145 1.145 0 0 1-.102.287c-.067.12-.12.278-.125.37 0 .02-.047.04-.102.045-.069.006-.106.03-.117.077-.009.038-.028.06-.042.048-.015-.011-.027-.004-.027.016s-.062.078-.138.128c-.213.142-.245.263-.09.34.074.035.076.063.024.213-.038.11.058.185.377.29.31.103.396.17.305.24-.056.042-.46-.012-1.095-.148-.287-.061-.409-.037-.475.095-.067.133-.136.17-.334.183-.164.01-.318.104-.32.194-.002.055.13.11.282.12.114.007.248.106.181.134a.298.298 0 0 0-.083.068c-.025.028-.045.042-.045.03 0-.043-.183.087-.22.157-.046.086-.203.202-.264.196-.154-.016-.358.003-.359.032 0 .055.153.22.185.197.016-.011.02-.003.009.018-.012.021-.008.05.01.062.016.013.021.04.01.059-.01.019-.002.059.018.09.056.085-.001.118-.229.13-.115.006-.27.025-.343.042-.074.017-.323.06-.554.096a4.04 4.04 0 0 0-.586.128 1.068 1.068 0 0 1-.351.058 1.51 1.51 0 0 0-.402.061c-.205.063-.275.064-1.26.015a52.952 52.952 0 0 1-1.294-.074 13.404 13.404 0 0 1-.87-.103 16.415 16.415 0 0 0-.774-.06c-.567-.037-.808-.038-1.125-.003-.222.024-.63.046-.906.05-.276.003-.551.012-.611.019-.207.024-.916.059-1.332.066-.23.004-.646.015-.925.025-.279.01-.842.018-1.252.017-.41 0-.786.004-.835.009-.05.005-.386.01-.748.012-.363.001-.698.007-.746.012-.092.011-.317.023-1.116.059a16.91 16.91 0 0 0-1.486.118c-.17.022-.359.04-.421.038a.66.66 0 0 0-.201.027 1.364 1.364 0 0 1-.276.044 4.274 4.274 0 0 0-.478.076c-.16.034-.37.068-.47.076-.098.007-.28.026-.403.041a9.106 9.106 0 0 1-.403.041 9.552 9.552 0 0 0-.503.058 8.539 8.539 0 0 1-.568.06c-.134.007-.32.023-.414.035-.095.012-.336.02-.537.018a5.937 5.937 0 0 0-.59.022c-.243.028-.761.046-1.163.04a2.464 2.464 0 0 0-.388.023c-.074.014-.584.02-1.133.014a21.569 21.569 0 0 0-1.063.003 9.377 9.377 0 0 1-.641.02c-.318.004-.644.01-.726.013-.082.004-.384.01-.671.013-.287.003-.636.013-.776.022-.14.008-.267.01-.283.005a4.915 4.915 0 0 0-.462.015c-.238.014-.567.03-.731.036a8.234 8.234 0 0 0-.403.022c-.058.007-.286.017-.507.023-.222.005-.41.015-.418.021a3.998 3.998 0 0 1-.388.022c-.205.007-.4.018-.433.025-.06.012-2.171-.006-3.084-.027-.27-.006-.72-.03-.998-.053zM4.95 11.373c.014-.001.002-.058-.026-.125-.044-.106-.08-.122-.252-.117-.11.004-.205.035-.21.07-.017.09.181.2.332.186l.156-.014zm.571-1.892c0-.014-.021-.026-.049-.027-.027 0-.05.026-.05.059-.001.033.02.045.048.026.028-.018.051-.045.051-.058zM4.026 8.339c0-.012-.026-.038-.059-.058-.034-.02-.05-.012-.037.02.022.056.095.084.096.038zm.459-1.246c-.051-.042-.058-.037-.03.023.018.042.047.065.064.053.017-.013.001-.047-.034-.076zM4.98 6.5c-.052-.042-.058-.037-.031.023.019.042.048.066.064.053.017-.012.002-.046-.033-.076zm-.463.037c-.017-.03-.042-.054-.055-.055-.013 0-.024.024-.025.053 0 .029.024.053.055.054.031 0 .042-.023.025-.052zm.978-1.787c-.029-.017-.064-.017-.078.002-.013.018.01.032.053.031.047 0 .057-.014.025-.033zm.04.085c-.044-.036-.112-.146-.111-.178 0-.01.02-.002.043.018.056.048.09.016.044-.04-.04-.05-.115-.013-.117.057 0 .022-.01.034-.023.026-.013-.008-.025.01-.028.04-.004.035.013.053.05.054.03 0 .055.014.055.03 0 .015.028.027.064.028.056 0 .059-.005.023-.035zm-.115-.054c0-.014.024-.04.051-.059.028-.018.05-.006.05.027-.001.033-.024.06-.052.058-.027 0-.049-.012-.049-.026zm.591-.648c.004-.044-.003-.06-.015-.036-.013.025-.04.035-.062.024-.022-.012-.028.004-.015.035.036.082.083.07.092-.023zm-.02.033c.042-.071-.005-.088-.058-.02-.031.039-.035.063-.01.063.023 0 .053-.018.067-.043zm1.002-1.752c0-.013-.022-.038-.05-.058-.027-.019-.05-.01-.05.02s.021.056.049.058c.028 0 .05-.008.05-.02zm-5.042 9.458c0-.02.024-.05.052-.062.028-.014.05.004.048.04 0 .034-.024.062-.051.062-.028 0-.05-.019-.049-.04zm.987-2.964c.02-.032.054-.047.077-.032.024.015.009.04-.035.059-.054.022-.066.014-.042-.027zm.449.006c-.034-.025-.036-.038-.008-.04.071-.007.089-.012.128-.039a.042.042 0 0 1 .061.017c.014.027.01.033-.014.016-.022-.016-.037-.004-.038.03-.001.062-.058.07-.13.016zm.055-.018c.026-.042.05-.044.072-.006.022.038.008.06-.04.063-.055.005-.063-.01-.032-.057zm.492-.604c.001-.035.024-.052.052-.038.027.015.049.044.048.065 0 .02-.024.038-.052.037-.027 0-.049-.03-.048-.064zm.022-.57c.07-.184.078-.19.068-.05-.005.069-.033.137-.063.153-.044.022-.045.001-.005-.103zm.412-1.147c-.036-.029-.015-.053.066-.075.147-.039.176-.014.069.06-.044.032-.105.038-.135.015zm.554-2.416c.014-.018.048-.019.077-.002.032.02.022.033-.025.034-.042 0-.066-.014-.052-.032zm0 0c.014-.018.048-.019.077-.002.032.02.022.033-.025.034-.042 0-.066-.014-.052-.032zm.529-.588c-.001-.045.012-.07.03-.056.017.015.017.052.001.083-.018.034-.03.024-.031-.027zm1.476-1.775c-.034-.032-.038-.054-.01-.053.024 0 .055.025.067.055.029.069.015.068-.057-.002z"/>
    </g>
</svg>
